<svg width="58" height="58" viewBox="0 0 58 58" fill="none" xmlns="http://www.w3.org/2000/svg">
<circle opacity="0.2" cx="29" cy="29" r="29" fill="white"/>
<path d="M44.0001 22.6009V14H35.3827" stroke="#B1FFFA" stroke-width="2" stroke-linecap="round" stroke-linejoin="round"/>
<path d="M33.9464 24.0344L44 14" stroke="#B1FFFA" stroke-width="2" stroke-linecap="round" stroke-linejoin="round"/>
<path d="M42.5638 36.821V41.1214C42.5655 41.5207 42.4835 41.9158 42.3233 42.2816C42.1631 42.6474 41.928 42.9758 41.6333 43.2457C41.3385 43.5156 40.9906 43.721 40.6117 43.8489C40.2327 43.9768 39.8312 44.0243 39.4329 43.9884C35.0134 43.5091 30.7681 42.0018 27.0382 39.5876C23.5681 37.3867 20.626 34.4503 18.4209 30.9867C15.9936 27.2471 14.4831 22.9894 14.0117 18.5585C13.9758 18.1621 14.023 17.7625 14.1503 17.3853C14.2775 17.0081 14.4821 16.6615 14.751 16.3676C15.0198 16.0736 15.3471 15.8387 15.7118 15.6779C16.0766 15.5171 16.471 15.4339 16.8697 15.4335H21.1784C21.8754 15.4266 22.5512 15.673 23.0797 16.1266C23.6081 16.5803 23.9533 17.2102 24.0509 17.8991C24.2327 19.2753 24.57 20.6266 25.0562 21.9272C25.2495 22.4402 25.2913 22.9978 25.1768 23.5339C25.0622 24.07 24.7961 24.562 24.4099 24.9518L22.5859 26.7723C24.6305 30.3611 27.6076 33.3326 31.2033 35.3732L33.0273 33.5527C33.4178 33.1673 33.9108 32.9017 34.4479 32.7873C34.985 32.673 35.5437 32.7147 36.0577 32.9076C37.3608 33.3929 38.7147 33.7295 40.0935 33.911C40.7912 34.0093 41.4284 34.36 41.8838 34.8966C42.3393 35.4331 42.5813 36.118 42.5638 36.821Z" stroke="#B1FFFA" stroke-width="2" stroke-linecap="round" stroke-linejoin="round"/>
</svg>
