<svg width="58" height="58" viewBox="0 0 58 58" fill="none" xmlns="http://www.w3.org/2000/svg">
<circle opacity="0.2" cx="29" cy="29" r="29" fill="white"/>
<path d="M42.5 25C42.5 35.5 29 44.5 29 44.5C29 44.5 15.5 35.5 15.5 25C15.5 21.4196 16.9223 17.9858 19.4541 15.4541C21.9858 12.9223 25.4196 11.5 29 11.5C32.5804 11.5 36.0142 12.9223 38.5459 15.4541C41.0777 17.9858 42.5 21.4196 42.5 25Z" stroke="#C1F8FF" stroke-width="2" stroke-linecap="round" stroke-linejoin="round"/>
<path d="M29 29.5C31.4853 29.5 33.5 27.4853 33.5 25C33.5 22.5147 31.4853 20.5 29 20.5C26.5147 20.5 24.5 22.5147 24.5 25C24.5 27.4853 26.5147 29.5 29 29.5Z" stroke="#C1F8FF" stroke-width="2" stroke-linecap="round" stroke-linejoin="round"/>
</svg>
