<svg width="58" height="58" viewBox="0 0 58 58" fill="none" xmlns="http://www.w3.org/2000/svg">
<circle opacity="0.2" cx="29" cy="29" r="29" fill="white"/>
<path d="M29.5 45.75C38.4746 45.75 45.75 38.4746 45.75 29.5C45.75 20.5254 38.4746 13.25 29.5 13.25C20.5254 13.25 13.25 20.5254 13.25 29.5C13.25 38.4746 20.5254 45.75 29.5 45.75Z" stroke="#C1F8FF" stroke-width="2" stroke-linecap="round" stroke-linejoin="round"/>
<path d="M13.25 29.5H45.75" stroke="#C1F8FF" stroke-width="2" stroke-linecap="round" stroke-linejoin="round"/>
<path d="M29.5 13.25C33.5646 17.6998 35.8745 23.4746 36 29.5C35.8745 35.5254 33.5646 41.3002 29.5 45.75C25.4354 41.3002 23.1255 35.5254 23 29.5C23.1255 23.4746 25.4354 17.6998 29.5 13.25V13.25Z" stroke="#C1F8FF" stroke-width="2" stroke-linecap="round" stroke-linejoin="round"/>
</svg>
