<svg width="30" height="24" viewBox="0 0 30 24" fill="none" xmlns="http://www.w3.org/2000/svg">
<path d="M29.5385 2.84123C28.44 3.32308 27.2695 3.64246 26.0492 3.79754C27.3046 3.048 28.2628 1.87015 28.7132 0.450461C27.5428 1.14831 26.2505 1.64123 24.8732 1.91631C23.7618 0.732923 22.1778 0 20.4498 0C17.0972 0 14.3982 2.72123 14.3982 6.05723C14.3982 6.53723 14.4388 6.99877 14.5385 7.43815C9.504 7.19262 5.04923 4.77969 2.05662 1.104C1.53415 2.01046 1.22769 3.048 1.22769 4.16492C1.22769 6.26215 2.30769 8.12123 3.91754 9.19754C2.94462 9.17908 1.99015 8.89662 1.18154 8.45169C1.18154 8.47015 1.18154 8.49415 1.18154 8.51815C1.18154 11.4609 3.28062 13.9052 6.03323 14.4683C5.54031 14.6031 5.00308 14.6677 4.44554 14.6677C4.05785 14.6677 3.66646 14.6455 3.29908 14.5643C4.08369 16.9625 6.31015 18.7255 8.95754 18.7828C6.89723 20.3945 4.28123 21.3655 1.44923 21.3655C0.952615 21.3655 0.476308 21.3434 0 21.2825C2.68246 23.0123 5.86154 24 9.28985 24C20.4332 24 26.5255 14.7692 26.5255 6.768C26.5255 6.50031 26.5163 6.24185 26.5034 5.98523C27.7052 5.13231 28.7151 4.06708 29.5385 2.84123Z" fill="#265BC5"/>
</svg>
